<svg xmlns="http://www.w3.org/2000/svg" viewBox="0 0 32 32" width="32" height="32">
  <defs>
    <linearGradient id="bg" x1="0%" y1="0%" x2="100%" y2="100%">
      <stop offset="0%" stop-color="#2d6a4f"/>
      <stop offset="100%" stop-color="#40916c"/>
    </linearGradient>
  </defs>
  <rect width="32" height="32" rx="8" fill="url(#bg)"/>
  <!-- Simplified heart -->
  <path d="M16 25 C16 25, 7 18, 7 12.5 C7 9.5, 9.5 7.5, 12 7.5 C14 7.5, 15.5 9, 16 10 C16.5 9, 18 7.5, 20 7.5 C22.5 7.5, 25 9.5, 25 12.5 C25 18, 16 25, 16 25Z" fill="white" opacity="0.95"/>
  <!-- Pulse line -->
  <polyline points="9,14 12.5,14 14,10.5 16,18 18,11.5 19.5,15 23,14" fill="none" stroke="#2d6a4f" stroke-width="1.5" stroke-linecap="round" stroke-linejoin="round"/>
</svg>
